<svg width="670" height="109" viewBox="0 0 670 109" fill="none" xmlns="http://www.w3.org/2000/svg">
<path d="M30.6059 34.1859H42.629C43.4774 34.1859 44.0775 34.9516 43.9947 35.7173C42.4634 48.8371 35.469 57.1973 22.8665 57.1973C8.44302 57.1973 0 45.5882 0 28.64C0 11.6919 8.27747 0 23.3425 0C35.4483 0 42.691 8.36024 42.691 16.0997C42.691 21.1282 40.0423 25.9085 33.3996 25.9085C28.0399 25.9085 25.2256 22.1629 25.2256 19.2658C25.2256 17.8173 25.7429 16.4515 25.7429 15.0029C25.7429 13.3888 24.3771 12.3541 22.494 12.3541C17.3827 12.3541 15.4996 18.9968 15.4996 28.64C15.4996 38.2833 18.3967 44.4914 23.508 44.4914C27.3363 44.4914 29.0539 41.2425 29.2195 35.4483C29.3022 34.7654 29.9024 34.1653 30.5852 34.1653L30.6059 34.1859ZM64.9367 15.6858C76.3596 15.6858 83.5197 24.1288 83.5197 36.4002C83.5197 48.6715 76.3596 57.1145 64.9367 57.1145C53.5138 57.1145 46.4366 48.7543 46.4366 36.4002C46.4366 24.046 53.5138 15.6858 64.9367 15.6858ZM64.9367 45.2571C68.5995 45.2571 69.7998 41.0769 69.7998 36.4002C69.7998 31.7234 68.5995 27.5433 64.9367 27.5433C61.274 27.5433 60.0737 31.8062 60.0737 36.4002C60.0737 40.9942 61.274 45.2571 64.9367 45.2571ZM130.122 15.6858C140.179 15.6858 142.062 23.6115 142.062 29.0746V54.652C142.062 55.4177 141.462 55.935 140.779 55.935H129.873C129.191 55.935 128.59 55.4177 128.59 54.652V31.3923C128.59 29.1781 127.576 27.1294 125.093 27.1294C122.61 27.1294 121.596 29.4264 121.596 31.9096V54.6727C121.596 55.4383 120.996 55.9557 120.313 55.9557H109.407C108.642 55.9557 108.124 55.4383 108.124 54.6727V31.413C108.124 29.1988 107.11 27.1501 104.627 27.1501C102.144 27.1501 101.047 29.4471 101.047 31.9303V54.6934C101.047 55.459 100.53 55.9764 99.7642 55.9764H88.8586C88.1757 55.9764 87.6584 55.459 87.6584 54.6934V18.1484C87.6584 17.4655 88.1757 16.9481 88.8586 16.9481H99.7642C100.53 16.9481 101.047 17.4655 101.047 18.1484V19.3486C103.013 17.4655 105.745 15.6858 109.656 15.6858C114.519 15.6858 117.499 17.5689 119.196 20.1143C121.41 17.7345 125.838 15.6858 130.101 15.6858H130.122ZM169.936 15.6858C179.228 15.6858 184.174 24.1288 184.174 36.4829C184.174 48.8371 178.628 57.1973 169.254 57.1973C165.342 57.1973 162.528 55.5004 160.728 53.8656V68.9513C160.728 69.6342 160.21 70.2343 159.445 70.2343H148.539C147.856 70.2343 147.339 69.6342 147.339 68.9513V18.1484C147.339 17.4655 147.856 16.9481 148.539 16.9481H158.679C159.445 16.9481 159.962 17.4655 159.962 18.1484V20.2798C162.094 17.9828 165.756 15.6858 169.936 15.6858ZM165.591 44.4086C169.005 44.4086 170.454 40.9114 170.454 36.4829C170.454 32.0545 169.005 28.64 165.591 28.64C162.176 28.64 160.728 32.0545 160.728 36.4829C160.728 40.9114 162.259 44.4086 165.591 44.4086ZM219.912 28.5573V54.5485C219.912 55.2314 219.394 55.8315 218.711 55.8315H208.654C207.971 55.8315 207.371 55.2314 207.371 54.5485V53.8656H207.04C205.592 55.397 202.695 57.1145 197.997 57.1145C191.872 57.1145 187.091 52.7689 187.091 46.7263C187.091 32.0752 207.04 35.5517 207.04 28.578C207.04 26.7983 205.923 25.4325 203.812 25.4325C202.363 25.4325 201.515 26.55 201.515 27.8123C201.515 30.3783 198.783 32.8409 195.203 32.8409C191.375 32.8409 188.644 29.861 188.644 26.0326C188.644 20.9213 195.121 15.6444 204.247 15.6444C213.372 15.6444 219.932 20.0729 219.932 28.5987L219.912 28.5573ZM207.392 46.3745V39.9802C204.495 41.2632 201.515 42.3599 201.515 45.1743C201.515 46.7056 202.798 47.6368 204.247 47.6368C205.447 47.6368 206.461 47.0367 207.392 46.3538V46.3745ZM251.945 35.2827C255.277 36.2139 259.188 39.2973 259.188 44.4086C259.188 52.6861 251.428 57.1973 241.64 57.1973C231.852 57.1973 224.775 53.2862 223.906 45.5261C223.823 44.7604 224.423 44.0775 225.189 44.0775H236.446C236.963 44.0775 237.563 44.4086 237.729 44.926C238.163 46.3745 239.509 47.3885 241.392 47.3885C243.275 47.3885 244.372 46.3745 244.372 44.7397C244.372 43.6223 243.358 42.5255 242.24 42.2772C242.157 42.1944 242.075 42.1944 242.075 42.1944H241.826H241.909L241.826 42.1116V42.1944L241.743 42.1116L232.286 39.7318C228.189 38.7179 224.009 35.469 224.009 29.2402C224.009 20.5488 232.1 15.603 241.826 15.603C251.552 15.603 258.112 20.6316 258.112 25.5774C258.112 30.2748 254.532 32.6546 250.518 32.6546C246.503 32.6546 243.44 30.3576 243.44 27.8744C243.44 26.5086 242.509 25.7429 241.061 25.7429C239.364 25.7429 238.246 26.7569 238.246 28.8056C238.246 30.8543 239.695 32.0545 241.495 32.5511L251.987 35.2827H251.945ZM290.229 35.2827C293.56 36.2139 297.472 39.2973 297.472 44.4086C297.472 52.6861 289.711 57.1973 279.923 57.1973C270.135 57.1973 263.058 53.2862 262.189 45.5261C262.106 44.7604 262.706 44.0775 263.472 44.0775H274.729C275.247 44.0775 275.847 44.4086 276.012 44.926C276.447 46.3745 277.792 47.3885 279.675 47.3885C281.558 47.3885 282.655 46.3745 282.655 44.7397C282.655 43.6223 281.641 42.5255 280.523 42.2772C280.441 42.1944 280.358 42.1944 280.358 42.1944H280.11H280.192L280.11 42.1116V42.1944L280.027 42.1116L270.57 39.7318C266.472 38.7179 262.292 35.469 262.292 29.2402C262.292 20.5488 270.384 15.603 280.11 15.603C289.836 15.603 296.395 20.6316 296.395 25.5774C296.395 30.2748 292.815 32.6546 288.801 32.6546C284.786 32.6546 281.724 30.3576 281.724 27.8744C281.724 26.5086 280.792 25.7429 279.344 25.7429C277.647 25.7429 276.53 26.7569 276.53 28.8056C276.53 30.8543 277.978 32.0545 279.758 32.5511L290.249 35.2827H290.229Z" fill="#003E29"/>
<path d="M413.05 55.2935C413.484 56.1419 412.801 57.1766 411.849 57.1766H398.461C397.943 57.1766 397.447 56.9283 397.26 56.4937L387.369 35.7794H386.086V55.8936C386.086 56.5765 385.486 57.1766 384.72 57.1766H372.283C371.6 57.1766 371 56.5765 371 55.8936V3.82833C371 3.14543 371.6 2.54532 372.283 2.54532H384.72C385.486 2.54532 386.086 3.14543 386.086 3.82833V21.2938H387.286L395.129 3.31098C395.294 2.79364 395.812 2.54532 396.329 2.54532H408.683C409.614 2.54532 410.297 3.47654 409.883 4.32498L399.578 28.102L413.05 55.2935ZM427.908 57.1766H417.002C416.319 57.1766 415.719 56.6593 415.719 55.8936V19.4934C415.719 18.7278 416.319 18.2104 417.002 18.2104H427.908C428.59 18.2104 429.191 18.7278 429.191 19.4934V55.8936C429.191 56.6593 428.59 57.1766 427.908 57.1766ZM422.444 14.5683C418.43 14.5683 415.202 11.2367 415.202 7.24278C415.202 3.24891 418.43 0 422.444 0C426.459 0 429.77 3.24891 429.77 7.24278C429.77 11.2367 426.438 14.5683 422.444 14.5683ZM457.707 16.9481C467.764 16.9481 469.543 24.8738 469.543 30.3369V55.9143C469.543 56.68 469.026 57.1973 468.26 57.1973H457.355C456.672 57.1973 456.072 56.68 456.072 55.9143V32.6546C456.072 30.4404 454.789 28.3917 452.057 28.3917C449.326 28.3917 448.043 30.6887 448.043 33.172V55.935C448.043 56.7007 447.525 57.218 446.76 57.218H435.854C435.171 57.218 434.654 56.7007 434.654 55.935V19.4521C434.654 18.7692 435.171 18.2518 435.854 18.2518H446.76C447.525 18.2518 448.043 18.7692 448.043 19.4521V20.6523C450.008 18.7692 453.754 16.9895 457.665 16.9895L457.707 16.9481ZM509.151 1.6141C509.834 1.6141 510.434 2.21423 510.434 2.89712V55.9143C510.434 56.68 509.834 57.1973 509.151 57.1973H499.011C498.328 57.1973 497.728 56.68 497.728 55.9143V53.8656C495.597 56.1626 491.934 58.4596 487.836 58.4596C478.462 58.4596 473.599 50.0166 473.599 37.6625C473.599 25.3084 479.062 16.9481 488.437 16.9481C492.451 16.9481 495.162 18.645 496.962 20.2798V2.89712C496.962 2.21423 497.563 1.6141 498.245 1.6141H509.151ZM492.099 45.5054C495.514 45.5054 496.962 42.0909 496.962 37.6625C496.962 33.234 495.514 29.7368 492.099 29.7368C488.685 29.7368 487.236 33.234 487.236 37.6625C487.236 42.0909 488.768 45.5054 492.099 45.5054ZM539.012 16.9481C549.069 16.9481 550.849 24.8738 550.849 30.3369V55.9143C550.849 56.68 550.331 57.1973 549.566 57.1973H538.66C537.977 57.1973 537.377 56.68 537.377 55.9143V32.6546C537.377 30.4404 536.094 28.3917 533.363 28.3917C530.631 28.3917 529.348 30.6887 529.348 33.172V55.935C529.348 56.7007 528.831 57.218 528.065 57.218H517.159C516.477 57.218 515.959 56.7007 515.959 55.935V19.4521C515.959 18.7692 516.477 18.2518 517.159 18.2518H528.065C528.831 18.2518 529.348 18.7692 529.348 19.4521V20.6523C531.314 18.7692 535.059 16.9895 538.971 16.9895L539.012 16.9481ZM591.326 43.7878C592.174 43.7878 592.774 44.5535 592.526 45.4019C590.146 53.6587 583.069 58.4389 574.108 58.4389C562.934 58.4389 554.594 49.9959 554.594 37.6418C554.594 25.2877 562.955 16.9274 574.108 16.9274C586.38 16.9274 592.857 24.8531 593.374 36.1932C593.457 38.1591 592.091 40.0216 589.877 40.0216H569.08C569.08 45.1329 571.294 47.7817 574.709 47.7817C577.275 47.7817 578.62 46.6642 579.406 44.5328C579.572 44.0982 580.089 43.7671 580.606 43.7671H591.346L591.326 43.7878ZM574.46 27.0052C570.88 27.0052 569.432 30.3369 569.432 32.965H579.654C579.654 30.0679 578.123 27.0052 574.46 27.0052ZM624.353 36.545C627.684 37.4762 631.595 40.5596 631.595 45.6709C631.595 53.9277 623.835 58.4596 614.047 58.4596C604.259 58.4596 597.182 54.5485 596.313 46.7884C596.23 46.0227 596.83 45.3398 597.596 45.3398H608.853C609.37 45.3398 609.971 45.6916 610.136 46.1883C610.571 47.6368 611.916 48.6508 613.799 48.6508C615.682 48.6508 616.779 47.6368 616.779 46.002C616.779 44.8846 615.765 43.7878 614.647 43.5395C614.565 43.4567 614.482 43.4567 614.482 43.4567H614.233H614.316L614.233 43.3739V43.4567L614.151 43.3739L604.694 40.9942C600.596 39.9802 596.416 36.7313 596.416 30.5025C596.416 21.8111 604.507 16.8653 614.233 16.8653C623.959 16.8653 630.519 21.8939 630.519 26.8397C630.519 31.5372 626.939 33.9169 622.925 33.9169C618.91 33.9169 615.848 31.6199 615.848 29.1367C615.848 27.7709 614.916 27.0052 613.468 27.0052C611.771 27.0052 610.653 28.0192 610.653 30.0679C610.653 32.1166 612.102 33.3168 613.902 33.8135L624.394 36.545H624.353ZM662.636 36.545C665.968 37.4762 669.879 40.5596 669.879 45.6709C669.879 53.9277 662.119 58.4596 652.33 58.4596C642.542 58.4596 635.465 54.5485 634.596 46.7884C634.513 46.0227 635.113 45.3398 635.879 45.3398H647.136C647.654 45.3398 648.254 45.6916 648.419 46.1883C648.854 47.6368 650.199 48.6508 652.082 48.6508C653.965 48.6508 655.062 47.6368 655.062 46.002C655.062 44.8846 654.048 43.7878 652.931 43.5395C652.848 43.4567 652.765 43.4567 652.765 43.4567H652.517H652.599L652.517 43.3739V43.4567L652.434 43.3739L642.977 40.9942C638.88 39.9802 634.699 36.7313 634.699 30.5025C634.699 21.8111 642.791 16.8653 652.517 16.8653C662.243 16.8653 668.803 21.8939 668.803 26.8397C668.803 31.5372 665.223 33.9169 661.208 33.9169C657.193 33.9169 654.131 31.6199 654.131 29.1367C654.131 27.7709 653.2 27.0052 651.751 27.0052C650.054 27.0052 648.937 28.0192 648.937 30.0679C648.937 32.1166 650.385 33.3168 652.165 33.8135L662.657 36.545H662.636Z" fill="#003E29"/>
<path d="M301.672 82.3197C299.458 95.2739 291.367 108.063 285.738 108.063C283.007 108.063 278.909 104.731 278.909 97.9227C278.909 92.4596 284.021 81.0574 290.932 69.1999C290.849 68.517 290.849 67.8341 290.849 67.234C290.849 66.0338 293.312 63.4057 295.03 62.4538C295.961 61.0052 296.913 59.4739 297.927 58.0253C303.804 47.2853 308.915 39.5252 311.647 35.7796C315.392 30.5028 317.524 28.6196 320.007 28.6196C321.621 28.6196 322.904 30.6683 322.904 31.6823C322.904 34.0621 317.192 44.3882 302.459 61.088C301.527 62.5366 300.679 64.0679 299.81 65.5992C301.507 68.248 302.19 71.6418 302.272 75.4908C307.735 74.2906 316.841 63.654 317.793 63.654C318.641 63.654 319.324 65.6199 319.324 66.9029C319.324 69.2827 307.653 81.9886 301.672 82.3197ZM295.112 78.5742C294.678 77.974 294.181 77.2911 293.829 76.691C289.235 86.0653 286.152 94.3427 286.152 97.5709C286.152 98.5022 286.152 99.185 287 99.185C289.132 99.185 294.595 87.2448 295.092 78.5535L295.112 78.5742ZM331.388 72.5316C327.56 78.5742 321.931 83.3544 316.903 83.3544C313.654 83.3544 310.943 81.1402 310.943 76.1944C310.943 65.3716 325.946 51.9 330.374 51.9C331.988 51.9 333.789 53.8659 334.12 55.0454C335.651 55.0454 336.251 56.9286 336.251 58.1909C336.251 60.9225 335.486 63.9023 334.285 66.8822C334.617 67.1306 335.134 67.2133 335.651 67.2133C341.114 67.2133 345.957 61.0673 346.909 61.0673C347.343 61.0673 348.192 61.9157 348.192 63.5299C348.192 66.427 341.88 72.9041 334.389 72.9041C333.375 72.9041 332.34 72.8213 331.409 72.4695L331.388 72.5316ZM327.125 68.1032C326.877 67.4203 326.794 66.7374 326.794 65.8889C326.794 63.5919 327.477 61.2949 328.76 59.0807C322.8 63.2608 318.538 69.9863 318.538 74.0008C318.538 75.0148 318.972 75.4494 319.821 75.4494C321.786 75.4494 325.015 71.9522 327.146 68.1238L327.125 68.1032ZM344.467 69.0344L343.867 63.5712C346.929 61.0052 348.461 58.3771 349.744 56.3285C349.226 56.0801 348.978 55.7283 348.978 55.3145C348.978 53.2658 353.489 48.7546 354.441 48.7546C355.641 48.7546 356.407 50.7205 357.773 50.7205C358.89 50.7205 360.504 50.2859 361.518 50.2859C362.884 50.2859 363.898 55.8318 363.898 56.8458C363.898 58.7289 363.464 59.2256 361.932 61.0259C359.035 64.6059 355.372 69.4689 355.372 72.7799C355.372 74.8286 356.304 75.5943 357.669 75.5943C362.946 75.5943 373.086 63.654 374.121 63.654C375.052 63.654 375.652 65.8682 375.652 66.9029C375.652 69.4689 363.029 83.3544 355.021 83.3544C351.958 83.3544 348.295 81.3885 348.295 76.3599C348.295 69.2827 356.573 61.4398 356.573 59.3083C356.573 58.5427 355.041 58.1081 353.427 57.6115C350.778 61.626 348.564 65.6199 344.487 69.0344H344.467Z" fill="#003E29"/>
</svg>
