<svg width="60" height="50" viewBox="0 0 60 50" fill="none" xmlns="http://www.w3.org/2000/svg">
<path d="M2.3 49.55C1.75 49.55 0.65 47.8 0.65 46.75C0.65 45.7 2.3 42.45 3 40.9C7.3 31.4 22 6.4 23.8 3.5C25.15 1.35 26.2 0.449998 27.7 0.449998C29 0.449998 29.7 1.15 29.7 1.7C29.7 2.25 28.75 3.3 28.3 4C24.4 10 9.75 34.75 3.5 47.5C3 48.5 2.7 49.55 2.3 49.55ZM47.8934 5.75C46.4434 7.8 44.5434 10.4 42.9934 12.9C44.5934 11.55 46.1934 11.2 47.4434 11.2C52.3434 11.2 53.4934 14.85 53.4934 17.25C53.4934 24.6 44.9434 35.5 37.8434 35.5C32.9934 35.5 31.2434 32.1 31.2434 29.5C31.2434 24.9 35.6934 22.15 36.9934 22.15C37.2434 22.15 37.2934 22.2 37.2934 22.35C37.2934 22.7 34.5934 24.65 34.5934 27.95C34.5934 29.95 35.3934 30.7 36.7434 30.7C41.3934 30.7 48.2434 22.75 48.2434 17.45C48.2434 15.8 47.1934 15.2 45.5434 15.2C43.4934 15.2 40.8434 16.85 38.9934 18.15C38.4934 18.65 38.1934 18.8 37.9434 18.8C37.0934 18.8 36.6434 17.15 36.6434 16.45C36.6434 14.95 42.6434 6.4 45.0434 2.45C45.5434 1.7 45.9434 1.35 47.9434 1C51.1434 0.399998 53.5934 -2.38419e-06 57.8934 -2.38419e-06C58.9434 -2.38419e-06 59.2934 0.749997 59.2934 2.75C59.2934 4.7 59.2934 5.05 58.8934 5.05C58.5934 5.05 57.8934 4.75 55.9934 4.75C53.8434 4.75 49.6434 5.4 47.8934 5.75Z" fill="#F58BCF"/>
</svg>
