<svg width="91" height="66" viewBox="0 0 91 66" fill="none" xmlns="http://www.w3.org/2000/svg">
<path d="M5.05965 43.2594C4.2517 44.2693 3.64573 44.8753 3.1071 44.8753C1.76051 44.8753 0.750565 43.394 0.750565 41.5761C0.750565 40.7009 1.49119 38.7483 2.83778 36.1225C2.77045 35.8531 2.77045 35.6512 2.77045 35.3818C2.77045 34.2372 3.30908 33.3619 4.38635 33.2273C7.41618 27.7736 11.8599 20.6367 16.1017 14.375C17.7849 11.8839 19.4008 9.52733 20.9494 7.50745C14.8224 9.19068 9.36873 12.0185 7.14686 13.7018C6.94487 14.9137 6.40624 15.5197 5.66561 15.5197C4.85766 15.5197 3.91505 14.7117 3.91505 12.8938C3.91505 11.6145 4.04971 9.39267 7.82016 7.37279C14.7551 3.737 21.3534 1.85177 26.4704 1.38047C27.2784 0.707176 27.9517 0.303197 28.4903 0.303197C29.3656 0.303197 29.8369 0.707176 30.0389 1.17848C37.5798 1.38047 40.8789 5.68955 40.8789 11.0759C40.8789 25.6864 23.0366 46.4239 11.052 46.4239C8.1568 46.4239 6.27158 45.0099 5.05965 43.2594ZM8.08947 38.2097C8.96476 39.085 10.244 39.7582 12.2639 39.7582C21.3534 39.7582 35.7619 20.906 35.7619 11.2779C35.7619 8.38273 34.8193 6.09353 30.3755 6.09353C29.6349 6.09353 28.8943 6.09353 28.221 6.16086C25.9318 9.79665 21.69 15.789 15.563 25.5517C12.1966 30.8708 9.84004 35.0452 8.08947 38.2097ZM46.9433 38.4117C44.1828 42.8554 41.2876 45.2119 39.739 45.2119C37.9885 45.2119 35.6319 42.3168 35.6319 38.681C35.6319 30.3321 48.3572 20.704 51.7237 20.704C52.8009 20.704 54.2149 21.714 54.4842 22.7912C55.6961 21.3773 56.4367 20.906 57.2447 20.906C58.5913 20.906 59.3992 21.9833 59.3992 22.8586C59.3992 23.5319 58.9279 24.2051 57.1774 26.5617C54.4842 30.1301 51.0504 34.4392 51.0504 36.7284C51.0504 37.4017 51.3197 38.5463 52.397 38.5463C56.3021 38.5463 64.6509 29.1202 65.3916 29.1202C66.0648 29.1202 66.6035 30.6688 66.6035 31.6787C66.6035 33.8333 56.3021 44.6733 50.6464 44.6733C48.4245 44.6733 46.9433 42.3841 46.9433 38.4117ZM50.9831 27.5043C50.7811 26.7637 50.3098 26.427 49.9731 26.427C48.0206 26.427 41.2203 34.9105 41.2203 37.469C41.2203 37.9404 41.4896 38.1423 41.8263 38.1423C43.6441 38.1423 48.4919 31.0727 49.8385 29.1202C50.2424 28.5142 50.5791 27.9756 50.9831 27.5043ZM75.967 43.4614L73.2065 44.6733C71.8599 47.7704 70.5133 50.9349 68.5608 54.6381C64.1844 62.8522 59.7406 65.3434 56.4415 65.3434C53.7483 65.3434 51.9977 63.1889 51.9977 60.1591C51.9977 53.8974 56.3068 47.7031 69.0321 42.3168L70.5133 39.4889C67.8201 42.3841 65.0596 43.4614 63.3764 43.4614C61.2219 43.4614 60.0773 40.8355 60.0773 38.8156C60.0773 33.2273 70.7826 19.6941 72.6679 19.6941C74.0818 19.6941 75.6977 20.8387 75.6977 22.1853C75.6977 23.0605 74.8897 23.7338 73.6778 25.1478C70.7826 28.4469 66.8102 34.6412 66.8102 36.4591C66.8102 36.9304 67.0795 37.1997 67.4835 37.1997C69.0321 37.1997 74.2164 31.6114 78.1889 25.6191C81.892 19.9634 82.498 19.0881 84.2485 19.0881C85.9318 19.0881 86.9417 20.5694 86.9417 21.7813C86.9417 22.7912 84.3159 24.6765 80.0741 31.2747C78.1215 34.3719 76.6403 37.0651 75.4284 39.6909C83.7772 35.6512 88.4903 29.1202 89.4329 29.1202C90.1062 29.1202 90.6448 30.6014 90.6448 31.6787C90.6448 33.7659 84.5852 39.6909 75.967 43.4614ZM65.9349 48.2418C59 51.9449 57.1821 54.3687 57.1821 56.7253C57.1821 57.3312 57.4514 57.8699 58.2594 57.8699C60.4139 57.8699 63.5111 52.7528 65.9349 48.2418Z" fill="#003E29"/>
</svg>
