<svg width="259" height="75" viewBox="0 0 259 75" fill="none" xmlns="http://www.w3.org/2000/svg">
<path d="M13.5793 17.7414H18.6988C19.0619 17.7414 19.3161 18.0681 19.2797 18.3949C18.6262 23.9864 15.6489 27.5446 10.2753 27.5446C4.13916 27.5446 0.544626 22.6067 0.544626 15.3813C0.544626 8.11964 4.06654 3.1817 10.4931 3.1817C15.6489 3.1817 18.7351 6.73992 18.7351 10.044C18.7351 12.1862 17.6096 14.2195 14.7775 14.2195C12.4901 14.2195 11.2919 12.6219 11.2919 11.3874C11.2919 10.7702 11.5098 10.1892 11.5098 9.57198C11.5098 8.88212 10.9288 8.44642 10.13 8.44642C7.95153 8.44642 7.15275 11.2785 7.15275 15.3813C7.15275 19.4479 8.38724 22.1347 10.5657 22.1347C12.1996 22.1347 12.9258 20.755 12.9984 18.286C13.0347 17.9955 13.2889 17.7414 13.5793 17.7414ZM28.2096 9.86245C33.0749 9.86245 36.1249 13.457 36.1249 18.6854C36.1249 23.9501 33.0749 27.5083 28.2096 27.5083C23.3443 27.5083 20.3307 23.9501 20.3307 18.6854C20.3307 13.457 23.3443 9.86245 28.2096 9.86245ZM28.2096 22.4615C29.7709 22.4615 30.2792 20.6823 30.2792 18.6854C30.2792 16.7247 29.7709 14.9093 28.2096 14.9093C26.6484 14.9093 26.14 16.7247 26.14 18.6854C26.14 20.6823 26.6484 22.4615 28.2096 22.4615ZM55.9773 9.86245C60.2617 9.86245 61.0605 13.2391 61.0605 15.5629V26.4554C61.0605 26.7821 60.8063 27 60.5159 27H55.8684C55.5779 27 55.3238 26.7821 55.3238 26.4554V16.5432C55.3238 15.5992 54.8881 14.7278 53.8351 14.7278C52.7459 14.7278 52.3465 15.7081 52.3465 16.761V26.4554C52.3465 26.7821 52.0923 27 51.8018 27H47.1544C46.8276 27 46.6097 26.7821 46.6097 26.4554V16.5432C46.6097 15.5992 46.174 14.7278 45.1211 14.7278C44.0318 14.7278 43.5961 15.7081 43.5961 16.761V26.4554C43.5961 26.7821 43.3783 27 43.0515 27H38.404C38.1136 27 37.8957 26.7821 37.8957 26.4554V10.9154C37.8957 10.6249 38.1136 10.4071 38.404 10.4071H43.0515C43.3783 10.4071 43.5961 10.6249 43.5961 10.9154V11.4237C44.4312 10.6249 45.5931 9.86245 47.2633 9.86245C49.3329 9.86245 50.6037 10.6612 51.3298 11.7505C52.2739 10.7338 54.1619 9.86245 55.9773 9.86245ZM72.9404 9.86245C76.898 9.86245 79.0039 13.457 79.0039 18.7217C79.0039 23.9864 76.6439 27.5446 72.6499 27.5446C70.9798 27.5446 69.7816 26.8185 69.0191 26.1286V32.5552C69.0191 32.8456 68.8013 33.0998 68.4745 33.0998H63.827C63.5365 33.0998 63.3187 32.8456 63.3187 32.5552V10.9154C63.3187 10.6249 63.5365 10.4071 63.827 10.4071H68.1477C68.4745 10.4071 68.6923 10.6249 68.6923 10.9154V11.8231C69.6 10.8428 71.1613 9.86245 72.9404 9.86245ZM71.0887 22.0984C72.541 22.0984 73.1583 20.6097 73.1583 18.7217C73.1583 16.8337 72.541 15.3813 71.0887 15.3813C69.6727 15.3813 69.0191 16.8337 69.0191 18.7217C69.0191 20.6097 69.6727 22.0984 71.0887 22.0984ZM94.2316 15.345V26.4191C94.2316 26.7095 94.0137 26.9637 93.7233 26.9637H89.4389C89.1484 26.9637 88.8943 26.7095 88.8943 26.4191V26.1286H88.749C88.1318 26.7821 86.8973 27.5083 84.9003 27.5083C82.2861 27.5083 80.2529 25.6566 80.2529 23.0787C80.2529 16.8337 88.749 18.3223 88.749 15.345C88.749 14.5825 88.277 14.0016 87.3693 14.0016C86.7521 14.0016 86.389 14.4736 86.389 15.0182C86.389 16.1075 85.2271 17.1604 83.7022 17.1604C82.0683 17.1604 80.9064 15.8896 80.9064 14.2558C80.9064 12.0773 83.6658 9.82614 87.5508 9.82614C91.3995 9.82614 94.2316 11.7142 94.2316 15.345ZM88.8943 22.9335V20.2103C87.6598 20.755 86.389 21.227 86.389 22.4251C86.389 23.0787 86.9336 23.4781 87.5508 23.4781C88.0592 23.4781 88.4949 23.2239 88.8943 22.9335ZM103.661 21.1544C103.625 21.1544 103.625 21.1544 103.589 21.1544H103.661ZM107.873 18.2134C109.289 18.6128 110.959 19.9199 110.959 22.0984C110.959 25.6203 107.655 27.5446 103.48 27.5446C99.2316 27.5446 96.2907 25.8744 95.9276 22.5704C95.8913 22.2436 96.1454 21.9531 96.4722 21.9531H101.265C101.483 21.9531 101.737 22.0984 101.81 22.3162C101.991 22.9335 102.572 23.3692 103.371 23.3692C104.133 23.3692 104.642 22.9335 104.642 22.2436C104.642 21.7716 104.206 21.2996 103.734 21.1907C103.698 21.1544 103.661 21.1544 103.661 21.1544C103.625 21.1544 103.589 21.1544 103.552 21.1544C103.589 21.1544 103.589 21.1544 103.589 21.1544L103.552 21.118C103.552 21.118 103.552 21.118 103.552 21.1544C103.516 21.118 103.516 21.118 103.516 21.118L99.4858 20.1014C97.743 19.6657 95.9639 18.286 95.9639 15.6355C95.9639 11.932 99.4132 9.82614 103.552 9.82614C107.8 9.82614 110.487 11.9683 110.487 14.0742C110.487 16.0712 108.962 17.0878 107.256 17.0878C105.622 17.0878 104.242 16.1075 104.242 15.0545C104.242 14.4736 103.843 14.1468 103.226 14.1468C102.499 14.1468 102.027 14.5825 102.027 15.4539C102.027 16.289 102.645 16.8337 103.407 17.0515L107.873 18.2134ZM119.972 21.1544C119.935 21.1544 119.935 21.1544 119.899 21.1544H119.972ZM124.183 18.2134C125.599 18.6128 127.27 19.9199 127.27 22.0984C127.27 25.6203 123.966 27.5446 119.79 27.5446C115.542 27.5446 112.601 25.8744 112.238 22.5704C112.202 22.2436 112.456 21.9531 112.783 21.9531H117.575C117.793 21.9531 118.047 22.0984 118.12 22.3162C118.301 22.9335 118.882 23.3692 119.681 23.3692C120.444 23.3692 120.952 22.9335 120.952 22.2436C120.952 21.7716 120.516 21.2996 120.044 21.1907C120.008 21.1544 119.972 21.1544 119.972 21.1544C119.935 21.1544 119.899 21.1544 119.863 21.1544C119.899 21.1544 119.899 21.1544 119.899 21.1544L119.863 21.118C119.863 21.118 119.863 21.118 119.863 21.1544C119.826 21.118 119.826 21.118 119.826 21.118L115.796 20.1014C114.053 19.6657 112.274 18.286 112.274 15.6355C112.274 11.932 115.724 9.82614 119.863 9.82614C124.111 9.82614 126.798 11.9683 126.798 14.0742C126.798 16.0712 125.273 17.0878 123.566 17.0878C121.932 17.0878 120.553 16.1075 120.553 15.0545C120.553 14.4736 120.153 14.1468 119.536 14.1468C118.81 14.1468 118.338 14.5825 118.338 15.4539C118.338 16.289 118.955 16.8337 119.718 17.0515L124.183 18.2134Z" fill="#003E29"/>
<path d="M148.055 64.4888C148.237 64.8519 147.946 65.2876 147.547 65.2876H141.846C141.629 65.2876 141.411 65.1787 141.338 64.9971L137.126 56.1742H136.582V64.743C136.582 65.0334 136.327 65.2876 136.001 65.2876H130.7C130.409 65.2876 130.155 65.0334 130.155 64.743V42.5586C130.155 42.2681 130.409 42.0139 130.7 42.0139H136.001C136.327 42.0139 136.582 42.2681 136.582 42.5586V50.0018H137.09L140.43 42.3407C140.503 42.1229 140.721 42.0139 140.939 42.0139H146.203C146.603 42.0139 146.893 42.4133 146.712 42.7764L142.318 52.9064L148.055 64.4888ZM154.384 65.2876H149.737C149.446 65.2876 149.192 65.0697 149.192 64.743V49.2393C149.192 48.9125 149.446 48.6947 149.737 48.6947H154.384C154.675 48.6947 154.929 48.9125 154.929 49.2393V64.743C154.929 65.0697 154.675 65.2876 154.384 65.2876ZM152.061 47.1334C150.354 47.1334 148.974 45.7174 148.974 44.0109C148.974 42.3044 150.354 40.9247 152.061 40.9247C153.767 40.9247 155.183 42.3044 155.183 44.0109C155.183 45.7174 153.767 47.1334 152.061 47.1334ZM167.081 48.15C171.365 48.15 172.128 51.5267 172.128 53.8505V64.743C172.128 65.0697 171.91 65.2876 171.583 65.2876H166.935C166.645 65.2876 166.391 65.0697 166.391 64.743V54.8308C166.391 53.8868 165.846 53.0154 164.684 53.0154C163.559 53.0154 162.978 53.9957 162.978 55.0486V64.743C162.978 65.0697 162.76 65.2876 162.433 65.2876H157.786C157.495 65.2876 157.277 65.0697 157.277 64.743V49.203C157.277 48.9125 157.495 48.6947 157.786 48.6947H162.433C162.76 48.6947 162.978 48.9125 162.978 49.203V49.7113C163.813 48.9125 165.411 48.15 167.081 48.15ZM189 41.6145C189.291 41.6145 189.545 41.8687 189.545 42.1592V64.743C189.545 65.0697 189.291 65.2876 189 65.2876H184.679C184.389 65.2876 184.135 65.0697 184.135 64.743V63.8716C183.227 64.8519 181.666 65.8322 179.923 65.8322C175.929 65.8322 173.86 62.2377 173.86 56.973C173.86 51.7083 176.183 48.15 180.177 48.15C181.884 48.15 183.046 48.8762 183.808 49.5661V42.1592C183.808 41.8687 184.062 41.6145 184.353 41.6145H189ZM181.738 60.3133C183.191 60.3133 183.808 58.861 183.808 56.973C183.808 55.0849 183.191 53.5963 181.738 53.5963C180.322 53.5963 179.669 55.0849 179.669 56.973C179.669 58.861 180.322 60.3133 181.738 60.3133ZM201.723 48.15C206.007 48.15 206.769 51.5267 206.769 53.8505V64.743C206.769 65.0697 206.552 65.2876 206.225 65.2876H201.577C201.287 65.2876 201.033 65.0697 201.033 64.743V54.8308C201.033 53.8868 200.488 53.0154 199.326 53.0154C198.201 53.0154 197.62 53.9957 197.62 55.0486V64.743C197.62 65.0697 197.402 65.2876 197.075 65.2876H192.428C192.137 65.2876 191.919 65.0697 191.919 64.743V49.203C191.919 48.9125 192.137 48.6947 192.428 48.6947H197.075C197.402 48.6947 197.62 48.9125 197.62 49.203V49.7113C198.455 48.9125 200.052 48.15 201.723 48.15ZM224.005 59.5872C224.368 59.5872 224.622 59.914 224.513 60.277C223.497 63.799 220.483 65.8322 216.671 65.8322C211.914 65.8322 208.356 62.2377 208.356 56.973C208.356 51.7446 211.914 48.15 216.671 48.15C221.899 48.15 224.659 51.5267 224.877 56.3557C224.913 57.1908 224.332 57.9896 223.388 57.9896H214.529C214.529 60.1681 215.473 61.2937 216.925 61.2937C218.014 61.2937 218.595 60.8217 218.922 59.914C218.995 59.7324 219.212 59.5872 219.43 59.5872H224.005ZM216.816 52.4344C215.291 52.4344 214.674 53.8505 214.674 54.976H219.031C219.031 53.7415 218.377 52.4344 216.816 52.4344ZM233.857 59.4419C233.821 59.4419 233.821 59.4419 233.785 59.4419H233.857ZM238.069 56.501C239.485 56.9004 241.155 58.2075 241.155 60.386C241.155 63.9079 237.851 65.8322 233.676 65.8322C229.428 65.8322 226.487 64.162 226.124 60.858C226.087 60.5312 226.342 60.2407 226.668 60.2407H231.461C231.679 60.2407 231.933 60.386 232.006 60.6038C232.187 61.2211 232.768 61.6568 233.567 61.6568C234.329 61.6568 234.838 61.2211 234.838 60.5312C234.838 60.0592 234.402 59.5872 233.93 59.4783C233.894 59.4419 233.857 59.4419 233.857 59.4419C233.821 59.4419 233.785 59.4419 233.749 59.4419C233.785 59.4419 233.785 59.4419 233.785 59.4419L233.749 59.4056C233.749 59.4056 233.749 59.4056 233.749 59.4419C233.712 59.4056 233.712 59.4056 233.712 59.4056L229.682 58.389C227.939 57.9533 226.16 56.5736 226.16 53.9231C226.16 50.2196 229.609 48.1137 233.749 48.1137C237.997 48.1137 240.683 50.2559 240.683 52.3618C240.683 54.3588 239.158 55.3754 237.452 55.3754C235.818 55.3754 234.438 54.3951 234.438 53.3421C234.438 52.7612 234.039 52.4344 233.422 52.4344C232.696 52.4344 232.224 52.8701 232.224 53.7415C232.224 54.5766 232.841 55.1213 233.603 55.3391L238.069 56.501ZM250.168 59.4419C250.132 59.4419 250.132 59.4419 250.095 59.4419H250.168ZM254.38 56.501C255.796 56.9004 257.466 58.2075 257.466 60.386C257.466 63.9079 254.162 65.8322 249.986 65.8322C245.738 65.8322 242.797 64.162 242.434 60.858C242.398 60.5312 242.652 60.2407 242.979 60.2407H247.772C247.989 60.2407 248.244 60.386 248.316 60.6038C248.498 61.2211 249.079 61.6568 249.877 61.6568C250.64 61.6568 251.148 61.2211 251.148 60.5312C251.148 60.0592 250.712 59.5872 250.24 59.4783C250.204 59.4419 250.168 59.4419 250.168 59.4419C250.132 59.4419 250.095 59.4419 250.059 59.4419C250.095 59.4419 250.095 59.4419 250.095 59.4419L250.059 59.4056C250.059 59.4056 250.059 59.4056 250.059 59.4419C250.023 59.4056 250.023 59.4056 250.023 59.4056L245.992 58.389C244.25 57.9533 242.47 56.5736 242.47 53.9231C242.47 50.2196 245.92 48.1137 250.059 48.1137C254.307 48.1137 256.994 50.2559 256.994 52.3618C256.994 54.3588 255.469 55.3754 253.762 55.3754C252.129 55.3754 250.749 54.3951 250.749 53.3421C250.749 52.7612 250.349 52.4344 249.732 52.4344C249.006 52.4344 248.534 52.8701 248.534 53.7415C248.534 54.5766 249.151 55.1213 249.914 55.3391L254.38 56.501Z" fill="#003E29"/>
<path d="M129.063 38.4088C128.119 43.9277 124.669 49.374 122.273 49.374C121.111 49.374 119.368 47.9579 119.368 45.0533C119.368 42.7295 121.547 37.8642 124.488 32.8173C124.451 32.5269 124.451 32.2364 124.451 31.9822C124.451 31.4739 125.504 30.3484 126.231 29.949C126.63 29.3317 127.029 28.6782 127.465 28.0609C129.97 23.4861 132.149 20.182 133.311 18.5845C134.908 16.3333 135.816 15.5346 136.869 15.5346C137.559 15.5346 138.103 16.406 138.103 16.8417C138.103 17.8583 135.671 22.2516 129.389 29.368C128.99 29.9853 128.627 30.6388 128.264 31.2924C128.99 32.4179 129.28 33.8703 129.317 35.5042C131.64 34.9958 135.525 30.4573 135.925 30.4573C136.288 30.4573 136.578 31.2924 136.578 31.837C136.578 32.8536 131.604 38.2636 129.063 38.4088ZM126.267 36.8113C126.085 36.5571 125.867 36.2666 125.722 36.0125C123.762 40.0064 122.454 43.5283 122.454 44.908C122.454 45.3074 122.454 45.5979 122.818 45.5979C123.725 45.5979 126.049 40.5147 126.267 36.8113ZM141.717 34.2334C140.083 36.8113 137.687 38.8445 135.545 38.8445C134.165 38.8445 133.003 37.9005 133.003 35.7946C133.003 31.1835 139.393 25.4467 141.281 25.4467C141.971 25.4467 142.734 26.2818 142.879 26.7901C143.533 26.7901 143.787 27.5889 143.787 28.1336C143.787 29.2954 143.46 30.5662 142.952 31.837C143.097 31.9459 143.315 31.9822 143.533 31.9822C145.856 31.9822 147.926 29.368 148.325 29.368C148.507 29.368 148.87 29.7311 148.87 30.421C148.87 31.6555 146.183 34.4149 142.988 34.4149C142.552 34.4149 142.117 34.3786 141.717 34.2334ZM139.902 32.3453C139.793 32.0549 139.757 31.7644 139.757 31.4013C139.757 30.421 140.047 29.4407 140.592 28.4966C138.05 30.2758 136.235 33.1441 136.235 34.8506C136.235 35.2863 136.416 35.4678 136.779 35.4678C137.614 35.4678 138.994 33.9792 139.902 32.3453ZM147.29 32.7447L147.036 30.421C148.343 29.3317 148.996 28.2062 149.541 27.3348C149.323 27.2258 149.214 27.0806 149.214 26.8991C149.214 26.0277 151.138 24.1033 151.538 24.1033C152.046 24.1033 152.373 24.9384 152.954 24.9384C153.426 24.9384 154.116 24.7569 154.551 24.7569C155.132 24.7569 155.568 27.1169 155.568 27.5526C155.568 28.3514 155.386 28.5693 154.733 29.3317C153.498 30.8567 151.937 32.9263 151.937 34.3423C151.937 35.2137 152.337 35.5405 152.917 35.5405C155.169 35.5405 159.489 30.4573 159.925 30.4573C160.324 30.4573 160.579 31.4013 160.579 31.837C160.579 32.9263 155.205 38.8445 151.792 38.8445C150.485 38.8445 148.924 38.0094 148.924 35.8672C148.924 32.8536 152.445 29.5133 152.445 28.6056C152.445 28.2788 151.792 28.0972 151.102 27.8794C149.977 29.5859 149.032 31.2924 147.29 32.7447Z" fill="#003E29"/>
</svg>
