<svg width="1440" height="720" viewBox="0 0 1440 720" fill="none" xmlns="http://www.w3.org/2000/svg">
<g clip-path="url(#clip0_1_4)">
<rect width="1440" height="720" fill="#003E29"/>
<path d="M1440 0L0 221V499L1440 720V0Z" fill="#ACE4E3"/>
<path d="M424.606 344.186H436.629C437.477 344.186 438.078 344.952 437.995 345.717C436.463 358.837 429.469 367.197 416.867 367.197C402.443 367.197 394 355.588 394 338.64C394 321.692 402.277 310 417.342 310C429.448 310 436.691 318.36 436.691 326.1C436.691 331.128 434.042 335.908 427.4 335.908C422.04 335.908 419.226 332.163 419.226 329.266C419.226 327.817 419.743 326.451 419.743 325.003C419.743 323.389 418.377 322.354 416.494 322.354C411.383 322.354 409.5 328.997 409.5 338.64C409.5 348.283 412.397 354.491 417.508 354.491C421.336 354.491 423.054 351.242 423.219 345.448C423.302 344.765 423.902 344.165 424.585 344.165L424.606 344.186ZM458.937 325.686C470.36 325.686 477.52 334.129 477.52 346.4C477.52 358.672 470.36 367.115 458.937 367.115C447.514 367.115 440.437 358.754 440.437 346.4C440.437 334.046 447.514 325.686 458.937 325.686ZM458.937 355.257C462.6 355.257 463.8 351.077 463.8 346.4C463.8 341.723 462.6 337.543 458.937 337.543C455.274 337.543 454.074 341.806 454.074 346.4C454.074 350.994 455.274 355.257 458.937 355.257ZM524.122 325.686C534.179 325.686 536.062 333.611 536.062 339.075V364.652C536.062 365.418 535.462 365.935 534.779 365.935H523.873C523.191 365.935 522.59 365.418 522.59 364.652V341.392C522.59 339.178 521.576 337.129 519.093 337.129C516.61 337.129 515.596 339.426 515.596 341.91V364.673C515.596 365.438 514.996 365.956 514.313 365.956H503.407C502.642 365.956 502.124 365.438 502.124 364.673V341.413C502.124 339.199 501.11 337.15 498.627 337.15C496.144 337.15 495.047 339.447 495.047 341.93V364.693C495.047 365.459 494.53 365.976 493.764 365.976H482.859C482.176 365.976 481.658 365.459 481.658 364.693V328.148C481.658 327.465 482.176 326.948 482.859 326.948H493.764C494.53 326.948 495.047 327.465 495.047 328.148V329.349C497.013 327.465 499.745 325.686 503.656 325.686C508.519 325.686 511.499 327.569 513.196 330.114C515.41 327.734 519.838 325.686 524.101 325.686H524.122ZM563.936 325.686C573.228 325.686 578.174 334.129 578.174 346.483C578.174 358.837 572.628 367.197 563.254 367.197C559.342 367.197 556.528 365.5 554.728 363.866V378.951C554.728 379.634 554.21 380.234 553.445 380.234H542.539C541.856 380.234 541.339 379.634 541.339 378.951V328.148C541.339 327.465 541.856 326.948 542.539 326.948H552.679C553.445 326.948 553.962 327.465 553.962 328.148V330.28C556.094 327.983 559.756 325.686 563.936 325.686ZM559.591 354.409C563.005 354.409 564.454 350.911 564.454 346.483C564.454 342.054 563.005 338.64 559.591 338.64C556.176 338.64 554.728 342.054 554.728 346.483C554.728 350.911 556.259 354.409 559.591 354.409ZM613.912 338.557V364.549C613.912 365.231 613.394 365.832 612.711 365.832H602.654C601.971 365.832 601.371 365.231 601.371 364.549V363.866H601.04C599.592 365.397 596.695 367.115 591.997 367.115C585.872 367.115 581.091 362.769 581.091 356.726C581.091 342.075 601.04 345.552 601.04 338.578C601.04 336.798 599.923 335.433 597.812 335.433C596.363 335.433 595.515 336.55 595.515 337.812C595.515 340.378 592.783 342.841 589.203 342.841C585.375 342.841 582.644 339.861 582.644 336.033C582.644 330.921 589.121 325.644 598.247 325.644C607.372 325.644 613.932 330.073 613.932 338.599L613.912 338.557ZM601.392 356.375V349.98C598.495 351.263 595.515 352.36 595.515 355.174C595.515 356.706 596.798 357.637 598.247 357.637C599.447 357.637 600.461 357.037 601.392 356.354V356.375ZM645.945 345.283C649.277 346.214 653.188 349.297 653.188 354.409C653.188 362.686 645.428 367.197 635.64 367.197C625.852 367.197 618.775 363.286 617.906 355.526C617.823 354.76 618.423 354.078 619.189 354.078H630.446C630.963 354.078 631.563 354.409 631.729 354.926C632.163 356.375 633.509 357.389 635.392 357.389C637.275 357.389 638.372 356.375 638.372 354.74C638.372 353.622 637.358 352.525 636.24 352.277C636.157 352.194 636.075 352.194 636.075 352.194H635.826H635.909L635.826 352.112V352.194L635.743 352.112L626.286 349.732C622.189 348.718 618.009 345.469 618.009 339.24C618.009 330.549 626.1 325.603 635.826 325.603C645.552 325.603 652.112 330.632 652.112 335.577C652.112 340.275 648.532 342.655 644.518 342.655C640.503 342.655 637.44 340.358 637.44 337.874C637.44 336.509 636.509 335.743 635.061 335.743C633.364 335.743 632.246 336.757 632.246 338.806C632.246 340.854 633.695 342.054 635.495 342.551L645.987 345.283H645.945ZM684.229 345.283C687.56 346.214 691.472 349.297 691.472 354.409C691.472 362.686 683.711 367.197 673.923 367.197C664.135 367.197 657.058 363.286 656.189 355.526C656.106 354.76 656.706 354.078 657.472 354.078H668.729C669.247 354.078 669.847 354.409 670.012 354.926C670.447 356.375 671.792 357.389 673.675 357.389C675.558 357.389 676.655 356.375 676.655 354.74C676.655 353.622 675.641 352.525 674.523 352.277C674.441 352.194 674.358 352.194 674.358 352.194H674.11H674.192L674.11 352.112V352.194L674.027 352.112L664.57 349.732C660.472 348.718 656.292 345.469 656.292 339.24C656.292 330.549 664.384 325.603 674.11 325.603C683.836 325.603 690.395 330.632 690.395 335.577C690.395 340.275 686.815 342.655 682.801 342.655C678.786 342.655 675.724 340.358 675.724 337.874C675.724 336.509 674.792 335.743 673.344 335.743C671.647 335.743 670.53 336.757 670.53 338.806C670.53 340.854 671.978 342.054 673.758 342.551L684.249 345.283H684.229Z" fill="#003E29"/>
<path d="M807.05 365.293C807.484 366.142 806.801 367.177 805.849 367.177H792.461C791.943 367.177 791.447 366.928 791.26 366.494L781.369 345.779H780.086V365.894C780.086 366.577 779.486 367.177 778.72 367.177H766.283C765.6 367.177 765 366.577 765 365.894V313.828C765 313.145 765.6 312.545 766.283 312.545H778.72C779.486 312.545 780.086 313.145 780.086 313.828V331.294H781.286L789.129 313.311C789.294 312.794 789.812 312.545 790.329 312.545H802.683C803.614 312.545 804.297 313.477 803.883 314.325L793.578 338.102L807.05 365.293ZM821.908 367.177H811.002C810.319 367.177 809.719 366.659 809.719 365.894V329.493C809.719 328.728 810.319 328.21 811.002 328.21H821.908C822.59 328.21 823.191 328.728 823.191 329.493V365.894C823.191 366.659 822.59 367.177 821.908 367.177ZM816.444 324.568C812.43 324.568 809.202 321.237 809.202 317.243C809.202 313.249 812.43 310 816.444 310C820.459 310 823.77 313.249 823.77 317.243C823.77 321.237 820.438 324.568 816.444 324.568ZM851.707 326.948C861.764 326.948 863.543 334.874 863.543 340.337V365.914C863.543 366.68 863.026 367.197 862.26 367.197H851.355C850.672 367.197 850.072 366.68 850.072 365.914V342.655C850.072 340.44 848.789 338.392 846.057 338.392C843.326 338.392 842.043 340.689 842.043 343.172V365.935C842.043 366.701 841.525 367.218 840.76 367.218H829.854C829.171 367.218 828.654 366.701 828.654 365.935V329.452C828.654 328.769 829.171 328.252 829.854 328.252H840.76C841.525 328.252 842.043 328.769 842.043 329.452V330.652C844.008 328.769 847.754 326.99 851.665 326.99L851.707 326.948ZM903.151 311.614C903.834 311.614 904.434 312.214 904.434 312.897V365.914C904.434 366.68 903.834 367.197 903.151 367.197H893.011C892.328 367.197 891.728 366.68 891.728 365.914V363.866C889.597 366.163 885.934 368.46 881.836 368.46C872.462 368.46 867.599 360.017 867.599 347.662C867.599 335.308 873.062 326.948 882.437 326.948C886.451 326.948 889.162 328.645 890.962 330.28V312.897C890.962 312.214 891.563 311.614 892.245 311.614H903.151ZM886.099 355.505C889.514 355.505 890.962 352.091 890.962 347.662C890.962 343.234 889.514 339.737 886.099 339.737C882.685 339.737 881.236 343.234 881.236 347.662C881.236 352.091 882.768 355.505 886.099 355.505ZM933.012 326.948C943.069 326.948 944.849 334.874 944.849 340.337V365.914C944.849 366.68 944.331 367.197 943.566 367.197H932.66C931.977 367.197 931.377 366.68 931.377 365.914V342.655C931.377 340.44 930.094 338.392 927.363 338.392C924.631 338.392 923.348 340.689 923.348 343.172V365.935C923.348 366.701 922.831 367.218 922.065 367.218H911.159C910.477 367.218 909.959 366.701 909.959 365.935V329.452C909.959 328.769 910.477 328.252 911.159 328.252H922.065C922.831 328.252 923.348 328.769 923.348 329.452V330.652C925.314 328.769 929.059 326.99 932.971 326.99L933.012 326.948ZM985.326 353.788C986.174 353.788 986.774 354.553 986.526 355.402C984.146 363.659 977.069 368.439 968.108 368.439C956.934 368.439 948.594 359.996 948.594 347.642C948.594 335.288 956.955 326.927 968.108 326.927C980.38 326.927 986.857 334.853 987.374 346.193C987.457 348.159 986.091 350.022 983.877 350.022H963.08C963.08 355.133 965.294 357.782 968.709 357.782C971.275 357.782 972.62 356.664 973.406 354.533C973.572 354.098 974.089 353.767 974.606 353.767H985.346L985.326 353.788ZM968.46 337.005C964.88 337.005 963.432 340.337 963.432 342.965H973.654C973.654 340.068 972.123 337.005 968.46 337.005ZM1018.35 346.545C1021.68 347.476 1025.6 350.56 1025.6 355.671C1025.6 363.928 1017.84 368.46 1008.05 368.46C998.259 368.46 991.182 364.549 990.313 356.788C990.23 356.023 990.83 355.34 991.596 355.34H1002.85C1003.37 355.34 1003.97 355.692 1004.14 356.188C1004.57 357.637 1005.92 358.651 1007.8 358.651C1009.68 358.651 1010.78 357.637 1010.78 356.002C1010.78 354.885 1009.76 353.788 1008.65 353.539C1008.56 353.457 1008.48 353.457 1008.48 353.457H1008.23H1008.32L1008.23 353.374V353.457L1008.15 353.374L998.694 350.994C994.596 349.98 990.416 346.731 990.416 340.502C990.416 331.811 998.507 326.865 1008.23 326.865C1017.96 326.865 1024.52 331.894 1024.52 336.84C1024.52 341.537 1020.94 343.917 1016.92 343.917C1012.91 343.917 1009.85 341.62 1009.85 339.137C1009.85 337.771 1008.92 337.005 1007.47 337.005C1005.77 337.005 1004.65 338.019 1004.65 340.068C1004.65 342.117 1006.1 343.317 1007.9 343.813L1018.39 346.545H1018.35ZM1056.64 346.545C1059.97 347.476 1063.88 350.56 1063.88 355.671C1063.88 363.928 1056.12 368.46 1046.33 368.46C1036.54 368.46 1029.47 364.549 1028.6 356.788C1028.51 356.023 1029.11 355.34 1029.88 355.34H1041.14C1041.65 355.34 1042.25 355.692 1042.42 356.188C1042.85 357.637 1044.2 358.651 1046.08 358.651C1047.97 358.651 1049.06 357.637 1049.06 356.002C1049.06 354.885 1048.05 353.788 1046.93 353.539C1046.85 353.457 1046.77 353.457 1046.77 353.457H1046.52H1046.6L1046.52 353.374V353.457L1046.43 353.374L1036.98 350.994C1032.88 349.98 1028.7 346.731 1028.7 340.502C1028.7 331.811 1036.79 326.865 1046.52 326.865C1056.24 326.865 1062.8 331.894 1062.8 336.84C1062.8 341.537 1059.22 343.917 1055.21 343.917C1051.19 343.917 1048.13 341.62 1048.13 339.137C1048.13 337.771 1047.2 337.005 1045.75 337.005C1044.05 337.005 1042.94 338.019 1042.94 340.068C1042.94 342.117 1044.39 343.317 1046.16 343.813L1056.66 346.545H1056.64Z" fill="#003E29"/>
<path d="M695.672 392.32C693.458 405.274 685.367 418.063 679.738 418.063C677.007 418.063 672.909 414.731 672.909 407.923C672.909 402.46 678.021 391.057 684.932 379.2C684.849 378.517 684.849 377.834 684.849 377.234C684.849 376.034 687.312 373.406 689.03 372.454C689.961 371.005 690.913 369.474 691.927 368.025C697.804 357.285 702.915 349.525 705.647 345.78C709.392 340.503 711.524 338.62 714.007 338.62C715.621 338.62 716.904 340.668 716.904 341.682C716.904 344.062 711.192 354.388 696.459 371.088C695.527 372.537 694.679 374.068 693.81 375.599C695.507 378.248 696.19 381.642 696.272 385.491C701.735 384.291 710.841 373.654 711.793 373.654C712.641 373.654 713.324 375.62 713.324 376.903C713.324 379.283 701.653 391.989 695.672 392.32ZM689.112 388.574C688.678 387.974 688.181 387.291 687.829 386.691C683.235 396.065 680.152 404.343 680.152 407.571C680.152 408.502 680.152 409.185 681 409.185C683.132 409.185 688.595 397.245 689.092 388.553L689.112 388.574ZM725.388 382.532C721.56 388.574 715.931 393.354 710.903 393.354C707.654 393.354 704.943 391.14 704.943 386.194C704.943 375.372 719.946 361.9 724.374 361.9C725.988 361.9 727.789 363.866 728.12 365.045C729.651 365.045 730.251 366.929 730.251 368.191C730.251 370.922 729.486 373.902 728.285 376.882C728.617 377.131 729.134 377.213 729.651 377.213C735.114 377.213 739.957 371.067 740.909 371.067C741.343 371.067 742.192 371.916 742.192 373.53C742.192 376.427 735.88 382.904 728.389 382.904C727.375 382.904 726.34 382.821 725.409 382.47L725.388 382.532ZM721.125 378.103C720.877 377.42 720.794 376.737 720.794 375.889C720.794 373.592 721.477 371.295 722.76 369.081C716.8 373.261 712.538 379.986 712.538 384.001C712.538 385.015 712.972 385.449 713.821 385.449C715.786 385.449 719.015 381.952 721.146 378.124L721.125 378.103ZM738.467 379.034L737.867 373.571C740.929 371.005 742.461 368.377 743.744 366.328C743.226 366.08 742.978 365.728 742.978 365.314C742.978 363.266 747.489 358.755 748.441 358.755C749.641 358.755 750.407 360.72 751.773 360.72C752.89 360.72 754.504 360.286 755.518 360.286C756.884 360.286 757.898 365.832 757.898 366.846C757.898 368.729 757.464 369.226 755.932 371.026C753.035 374.606 749.372 379.469 749.372 382.78C749.372 384.829 750.304 385.594 751.669 385.594C756.946 385.594 767.086 373.654 768.121 373.654C769.052 373.654 769.652 375.868 769.652 376.903C769.652 379.469 757.029 393.354 749.021 393.354C745.958 393.354 742.295 391.388 742.295 386.36C742.295 379.283 750.573 371.44 750.573 369.308C750.573 368.543 749.041 368.108 747.427 367.611C744.778 371.626 742.564 375.62 738.487 379.034H738.467Z" fill="#003E29"/>
</g>
<defs>
<clipPath id="clip0_1_4">
<rect width="1440" height="720" fill="white"/>
</clipPath>
</defs>
</svg>
